<svg width="161" height="116" viewBox="0 0 161 116" fill="none" xmlns="http://www.w3.org/2000/svg">
<mask id="path-1-outside-1_127_3" maskUnits="userSpaceOnUse" x="8" y="18" width="145" height="87" fill="black">
<rect fill="white" x="8" y="18" width="145" height="87"/>
<path d="M9.68182 68.4545V63L53.5909 40.6364V49.3636L19.9091 65.5909L20.1818 65.0455V66.4091L19.9091 65.8636L53.5909 82.0909V90.8182L9.68182 68.4545ZM95.3267 19.9091L72.8267 103.5H65.4631L87.9631 19.9091H95.3267ZM151.091 68.4545L107.182 90.8182V82.0909L140.864 65.8636L140.591 66.4091V65.0455L140.864 65.5909L107.182 49.3636V40.6364L151.091 63V68.4545Z"/>
</mask>
<path d="M9.68182 68.4545V63L53.5909 40.6364V49.3636L19.9091 65.5909L20.1818 65.0455V66.4091L19.9091 65.8636L53.5909 82.0909V90.8182L9.68182 68.4545ZM95.3267 19.9091L72.8267 103.5H65.4631L87.9631 19.9091H95.3267ZM151.091 68.4545L107.182 90.8182V82.0909L140.864 65.8636L140.591 66.4091V65.0455L140.864 65.5909L107.182 49.3636V40.6364L151.091 63V68.4545Z" fill="#A87FFB"/>
<path d="M9.68182 68.4545H8.68182V69.0675L9.22798 69.3456L9.68182 68.4545ZM9.68182 63L9.22798 62.1089L8.68182 62.3871V63H9.68182ZM53.5909 40.6364H54.5909V39.0048L53.1371 39.7453L53.5909 40.6364ZM53.5909 49.3636L54.0249 50.2645L54.5909 49.9919V49.3636H53.5909ZM19.9091 65.5909L19.0147 65.1437L17.7051 67.7627L20.3431 66.4918L19.9091 65.5909ZM20.1818 65.0455H21.1818L19.2874 64.5982L20.1818 65.0455ZM20.1818 66.4091L19.2874 66.8563L21.1818 66.4091H20.1818ZM19.9091 65.8636L20.3431 64.9627L17.7051 63.6918L19.0147 66.3108L19.9091 65.8636ZM53.5909 82.0909H54.5909V81.4627L54.0249 81.19L53.5909 82.0909ZM53.5909 90.8182L53.1371 91.7093L54.5909 92.4497V90.8182H53.5909ZM9.68182 68.4545H10.6818V63H9.68182H8.68182V68.4545H9.68182ZM9.68182 63L10.1357 63.8911L54.0448 41.5274L53.5909 40.6364L53.1371 39.7453L9.22798 62.1089L9.68182 63ZM53.5909 40.6364H52.5909V49.3636H53.5909H54.5909V40.6364H53.5909ZM53.5909 49.3636L53.1569 48.4627L19.4751 64.69L19.9091 65.5909L20.3431 66.4918L54.0249 50.2645L53.5909 49.3636ZM19.9091 65.5909L20.8035 66.0381L21.0762 65.4927L20.1818 65.0455L19.2874 64.5982L19.0147 65.1437L19.9091 65.5909ZM20.1818 65.0455H19.1818V66.4091H20.1818H21.1818V65.0455H20.1818ZM20.1818 66.4091L21.0762 65.9619L20.8035 65.4164L19.9091 65.8636L19.0147 66.3108L19.2874 66.8563L20.1818 66.4091ZM19.9091 65.8636L19.4751 66.7645L53.1569 82.9918L53.5909 82.0909L54.0249 81.19L20.3431 64.9627L19.9091 65.8636ZM53.5909 82.0909H52.5909V90.8182H53.5909H54.5909V82.0909H53.5909ZM53.5909 90.8182L54.0448 89.9271L10.1357 67.5635L9.68182 68.4545L9.22798 69.3456L53.1371 91.7093L53.5909 90.8182ZM95.3267 19.9091L96.2923 20.169L96.6315 18.9091H95.3267V19.9091ZM72.8267 103.5V104.5H73.5931L73.7923 103.76L72.8267 103.5ZM65.4631 103.5L64.4974 103.24L64.1583 104.5H65.4631V103.5ZM87.9631 19.9091V18.9091H87.1966L86.9974 19.6492L87.9631 19.9091ZM95.3267 19.9091L94.3611 19.6492L71.8611 103.24L72.8267 103.5L73.7923 103.76L96.2923 20.169L95.3267 19.9091ZM72.8267 103.5V102.5H65.4631V103.5V104.5H72.8267V103.5ZM65.4631 103.5L66.4287 103.76L88.9287 20.169L87.9631 19.9091L86.9974 19.6492L64.4974 103.24L65.4631 103.5ZM87.9631 19.9091V20.9091H95.3267V19.9091V18.9091H87.9631V19.9091ZM151.091 68.4545L151.545 69.3456L152.091 69.0675V68.4545H151.091ZM107.182 90.8182H106.182V92.4497L107.636 91.7093L107.182 90.8182ZM107.182 82.0909L106.748 81.19L106.182 81.4627V82.0909H107.182ZM140.864 65.8636L141.758 66.3108L143.068 63.6918L140.43 64.9627L140.864 65.8636ZM140.591 66.4091H139.591L141.485 66.8563L140.591 66.4091ZM140.591 65.0455L141.485 64.5982L139.591 65.0455H140.591ZM140.864 65.5909L140.43 66.4918L143.068 67.7627L141.758 65.1437L140.864 65.5909ZM107.182 49.3636H106.182V49.9919L106.748 50.2645L107.182 49.3636ZM107.182 40.6364L107.636 39.7453L106.182 39.0048V40.6364H107.182ZM151.091 63H152.091V62.3871L151.545 62.1089L151.091 63ZM151.091 68.4545L150.637 67.5635L106.728 89.9271L107.182 90.8182L107.636 91.7093L151.545 69.3456L151.091 68.4545ZM107.182 90.8182H108.182V82.0909H107.182H106.182V90.8182H107.182ZM107.182 82.0909L107.616 82.9918L141.298 66.7645L140.864 65.8636L140.43 64.9627L106.748 81.19L107.182 82.0909ZM140.864 65.8636L139.969 65.4164L139.696 65.9619L140.591 66.4091L141.485 66.8563L141.758 66.3108L140.864 65.8636ZM140.591 66.4091H141.591V65.0455H140.591H139.591V66.4091H140.591ZM140.591 65.0455L139.696 65.4927L139.969 66.0381L140.864 65.5909L141.758 65.1437L141.485 64.5982L140.591 65.0455ZM140.864 65.5909L141.298 64.69L107.616 48.4627L107.182 49.3636L106.748 50.2645L140.43 66.4918L140.864 65.5909ZM107.182 49.3636H108.182V40.6364H107.182H106.182V49.3636H107.182ZM107.182 40.6364L106.728 41.5274L150.637 63.8911L151.091 63L151.545 62.1089L107.636 39.7453L107.182 40.6364ZM151.091 63H150.091V68.4545H151.091H152.091V63H151.091Z" fill="#8411F6" mask="url(#path-1-outside-1_127_3)"/>
</svg>
